<?xml version="1.0" encoding="utf-8"?>
<!-- Generator: Adobe Illustrator 24.1.2, SVG Export Plug-In . SVG Version: 6.00 Build 0)  -->
<svg version="1.1" id="Layer_1" xmlns="http://www.w3.org/2000/svg" xmlns:xlink="http://www.w3.org/1999/xlink" x="0px" y="0px"
	 viewBox="0 0 165 50" style="enable-background:new 0 0 165 50;" xml:space="preserve">
<style type="text/css">
	.st0{fill:#FFFFFF;}
	.st1{fill:#B07908;}
	.st2{font-family:'MyriadPro-Regular';}
	.st3{font-size:27px;}
</style>
<g>
	<g>
		<path class="st0" d="M97.8-74.2V-99h11.3c1.2,0,2.3,0.2,3.2,0.7c1,0.5,1.8,1.1,2.5,1.8c0.7,0.8,1.3,1.6,1.7,2.6
			c0.4,1,0.6,1.9,0.6,2.9c0,0.8-0.1,1.6-0.4,2.4c-0.2,0.8-0.6,1.5-1,2.1c-0.4,0.7-1,1.2-1.6,1.7s-1.3,0.8-2.1,1.1l6.1,9.4h-4.7
			l-5.6-8.6h-6v8.6L97.8-74.2L97.8-74.2z M101.9-86.3h7.2c0.6,0,1.1-0.1,1.6-0.4c0.5-0.3,0.9-0.6,1.2-1c0.3-0.4,0.6-0.9,0.8-1.5
			c0.2-0.6,0.3-1.2,0.3-1.8c0-0.6-0.1-1.2-0.3-1.8c-0.2-0.6-0.5-1-0.9-1.5c-0.4-0.4-0.8-0.8-1.3-1c-0.5-0.2-1-0.4-1.6-0.4h-7
			C101.9-95.7,101.9-86.3,101.9-86.3z"/>
		<path class="st0" d="M139.9-77.7v3.5h-17.8V-99h17.5v3.5h-13.4v7h11.6v3.2h-11.6v7.6C126.2-77.7,139.9-77.7,139.9-77.7z"/>
		<path class="st0" d="M145.8-99l7.8,19.9l7.8-19.9h4.4l-10.4,24.8h-3.5L141.4-99H145.8z"/>
		<path class="st0" d="M186.9-77.7v3.5h-17.8V-99h17.5v3.5h-13.4v7h11.6v3.2h-11.6v7.6C173.1-77.7,186.9-77.7,186.9-77.7z"/>
		<path class="st0" d="M191.1-74.2V-99h4.1v21.3h14v3.5H191.1z"/>
	</g>
	<g>
		<polygon class="st0" points="51.9,34.3 29.1,23.1 29.1,17.7 51.9,28.9 		"/>
		<polygon class="st0" points="6.2,34.3 29.1,23.1 29.1,17.7 6.2,28.9 		"/>
		<polygon class="st1" points="51.9,41.6 29.1,30.4 29.1,25 51.9,36.2 		"/>
		<polygon class="st0" points="51.9,48.9 29.1,37.7 29.1,32.3 51.9,43.5 		"/>
		<g>
			<polygon class="st1" points="29.1,15.7 29.1,15.9 34.3,18.5 51.9,9.8 51.9,4.4 			"/>
			<g>
				<polygon class="st1" points="43.7,23.1 49.1,25.8 51.9,24.4 51.9,19 				"/>
			</g>
			<g>
				<polygon class="st1" points="36.2,19.4 41.7,22.1 51.9,17.1 51.9,11.7 				"/>
			</g>
		</g>
		<polygon class="st0" points="19.3,18.5 14.2,15.9 14.2,25.2 19.3,27.7 		"/>
		<polygon class="st0" points="6.2,36.1 6.2,46.4 11.3,48.9 11.3,33.6 		"/>
	</g>
	<text transform="matrix(1 0 0 1 77.7856 20.8257)" class="st0 st2 st3">Bright</text>
	<text transform="matrix(1 0 0 1 77.7856 47.2415)" class="st0 st2 st3">House</text>
</g>
</svg>
