<?xml version="1.0" encoding="utf-8"?>
<!-- Generator: Adobe Illustrator 24.1.2, SVG Export Plug-In . SVG Version: 6.00 Build 0)  -->
<svg version="1.1" id="Layer_1" xmlns="http://www.w3.org/2000/svg" xmlns:xlink="http://www.w3.org/1999/xlink" x="0px" y="0px"
	 viewBox="0 0 150 100" style="enable-background:new 0 0 150 100;" xml:space="preserve">
<style type="text/css">
	.st0{fill:#222222;}
	.st1{fill:#B07908;}
</style>
<polygon class="st0" points="-186.2,-100.1 -202.8,-108.8 -202.8,-112.9 -186.2,-104.3 "/>
<polygon class="st0" points="-219.4,-100.1 -202.8,-108.8 -202.8,-112.9 -219.4,-104.3 "/>
<polygon class="st1" points="-186.2,-94.5 -202.8,-103.1 -202.8,-107.3 -186.2,-98.6 "/>
<polygon class="st0" points="-186.2,-88.8 -202.8,-97.5 -202.8,-101.6 -186.2,-93 "/>
<g>
	<polygon class="st1" points="-202.8,-114.5 -202.8,-114.3 -199,-112.3 -186.2,-119 -186.2,-123.2 	"/>
	<g>
		<polygon class="st1" points="-192.2,-108.8 -188.2,-106.7 -186.2,-107.7 -186.2,-111.9 		"/>
	</g>
	<g>
		<polygon class="st1" points="-197.6,-111.6 -193.6,-109.5 -186.2,-113.4 -186.2,-117.5 		"/>
	</g>
</g>
<polygon class="st0" points="-209.9,-112.3 -213.6,-114.3 -213.6,-107.1 -209.9,-105.2 "/>
<polygon class="st0" points="-219.4,-98.7 -219.4,-90.7 -215.7,-88.8 -215.7,-100.6 "/>
<text transform="matrix(1 0 0 1 -176.6524 -109.769)" class="st0" style="font-family:'MyriadPro-Regular'; font-size:27px;">Bright</text>
<text transform="matrix(1 0 0 1 -176.6524 -83.3532)" class="st0" style="font-family:'MyriadPro-Regular'; font-size:27px;">House</text>
<image style="overflow:visible;" width="1500" height="1500" xlink:href="../../../../Users/amir beheshti/Downloads/Telegram Desktop/finaaal png 202020.png"  transform="matrix(9.325413e-02 0 0 9.325413e-02 5.0594 -16.2079)">
</image>
</svg>
