<?xml version="1.0" encoding="utf-8"?>
<!-- Generator: Adobe Illustrator 24.1.2, SVG Export Plug-In . SVG Version: 6.00 Build 0)  -->
<svg version="1.1" id="Layer_1" xmlns="http://www.w3.org/2000/svg" xmlns:xlink="http://www.w3.org/1999/xlink" x="0px" y="0px"
	 viewBox="0 0 185 60" style="enable-background:new 0 0 185 60;" xml:space="preserve">
<style type="text/css">
	.st0{fill:#FFFFFF;}
	.st1{fill:#B07908;}
	.st2{font-family:'MyriadPro-Regular';}
	.st3{font-size:28px;}
</style>
<g>
	<polygon class="st0" points="52.4,38 27.1,25.6 27.1,19.7 52.4,32.1 	"/>
	<polygon class="st0" points="1.9,38 27.1,25.6 27.1,19.7 1.9,32.1 	"/>
	<polygon class="st1" points="52.4,46 27.1,33.7 27.1,27.7 52.4,40.1 	"/>
	<polygon class="st0" points="52.4,54.1 27.1,41.7 27.1,35.8 52.4,48.2 	"/>
	<g>
		<polygon class="st1" points="27.1,17.4 27.1,17.7 32.9,20.5 52.4,11 52.4,5 		"/>
		<g>
			<polygon class="st1" points="43.2,25.6 49.3,28.6 52.4,27.1 52.4,21.1 			"/>
		</g>
		<g>
			<polygon class="st1" points="35,21.6 41.1,24.6 52.4,19 52.4,13.1 			"/>
		</g>
	</g>
	<polygon class="st0" points="16.4,20.5 10.7,17.7 10.7,28 16.4,30.8 	"/>
	<polygon class="st0" points="1.9,40 1.9,51.4 7.6,54.1 7.6,37.2 	"/>
</g>
<text transform="matrix(1 0 0 1 77.2584 24.792)" class="st0 st2 st3">Bright</text>
<text transform="matrix(1 0 0 1 77.2584 51.2078)" class="st0 st2 st3">House</text>
</svg>
