<?xml version="1.0" encoding="utf-8"?>
<!-- Generator: Adobe Illustrator 24.1.2, SVG Export Plug-In . SVG Version: 6.00 Build 0)  -->
<svg version="1.1" id="Layer_1" xmlns="http://www.w3.org/2000/svg" xmlns:xlink="http://www.w3.org/1999/xlink" x="0px" y="0px"
	 viewBox="0 0 100 100" style="enable-background:new 0 0 100 100;" xml:space="preserve">
<style type="text/css">
	.st0{fill:#222222;}
	.st1{fill:#B07908;}
	.st2{font-family:'MyriadPro-Regular';}
	.st3{font-size:21px;}
</style>
<g>
	<polygon class="st0" points="75.6,36.5 50,23.2 50,16.8 75.6,30.1 	"/>
	<polygon class="st0" points="24.4,36.5 50,23.2 50,16.8 24.4,30.1 	"/>
	<polygon class="st1" points="75.6,45.2 50,31.9 50,25.5 75.6,38.8 	"/>
	<polygon class="st0" points="75.6,53.8 50,40.5 50,34.1 75.6,47.5 	"/>
	<g>
		<polygon class="st1" points="50,14.3 50,14.7 55.8,17.7 75.6,7.4 75.6,1 		"/>
		<g>
			<polygon class="st1" points="66.3,23.2 72.5,26.4 75.6,24.8 75.6,18.4 			"/>
		</g>
		<g>
			<polygon class="st1" points="58,18.8 64.1,22 75.6,16.1 75.6,9.7 			"/>
		</g>
	</g>
	<polygon class="st0" points="39.1,17.7 33.4,14.7 33.4,25.7 39.1,28.7 	"/>
	<polygon class="st0" points="24.4,38.7 24.4,50.9 30.2,53.9 30.2,35.7 	"/>
	<text transform="matrix(1 0 0 1 18.3998 72.9445)" class="st0 st2 st3">Bright</text>
	<text transform="matrix(1 0 0 1 18.3996 94.0138)" class="st0 st2 st3">House</text>
</g>
</svg>
