<?xml version="1.0" encoding="utf-8"?>
<!-- Generator: Adobe Illustrator 24.1.2, SVG Export Plug-In . SVG Version: 6.00 Build 0)  -->
<svg version="1.1" id="Layer_1" xmlns="http://www.w3.org/2000/svg" xmlns:xlink="http://www.w3.org/1999/xlink" x="0px" y="0px"
	 viewBox="0 0 165 50" style="enable-background:new 0 0 165 50;" xml:space="preserve">
<style type="text/css">
	.st0{fill:#FFFFFF;}
	.st1{font-family:'ArialMT';}
	.st2{font-size:27px;}
</style>
<g>
	<path class="st0" d="M28.7-74.2V-99H40c1.2,0,2.3,0.2,3.2,0.7c1,0.5,1.8,1.1,2.5,1.8c0.7,0.8,1.3,1.6,1.7,2.6
		c0.4,1,0.6,1.9,0.6,2.9c0,0.8-0.1,1.6-0.4,2.4c-0.2,0.8-0.6,1.5-1,2.1c-0.4,0.7-1,1.2-1.6,1.7s-1.3,0.8-2.1,1.1l6.1,9.4h-4.7
		l-5.6-8.6h-6v8.6L28.7-74.2L28.7-74.2z M32.8-86.3H40c0.6,0,1.1-0.1,1.6-0.4s0.9-0.6,1.2-1c0.3-0.4,0.6-0.9,0.8-1.5
		c0.2-0.6,0.3-1.2,0.3-1.8c0-0.6-0.1-1.2-0.3-1.8c-0.2-0.6-0.5-1-0.9-1.5c-0.4-0.4-0.8-0.8-1.3-1s-1-0.4-1.6-0.4h-7
		C32.8-95.7,32.8-86.3,32.8-86.3z"/>
	<path class="st0" d="M70.8-77.7v3.5H53V-99h17.5v3.5H57.1v7h11.6v3.2H57.1v7.6C57.1-77.7,70.8-77.7,70.8-77.7z"/>
	<path class="st0" d="M76.7-99l7.8,19.9L92.3-99h4.4L86.3-74.2h-3.5L72.3-99H76.7z"/>
	<path class="st0" d="M117.8-77.7v3.5H100V-99h17.5v3.5h-13.4v7h11.6v3.2h-11.6v7.6C104-77.7,117.8-77.7,117.8-77.7z"/>
	<path class="st0" d="M122-74.2V-99h4.1v21.3h14v3.5H122z"/>
</g>
<text transform="matrix(1 0 0 1 77.7856 20.8257)" class="st0 st1 st2">Bright</text>
<text transform="matrix(1 0 0 1 77.7856 47.2415)" class="st0 st1 st2">House</text>
<image style="overflow:visible;" width="501" height="500" xlink:href="logo-3-01.png"  transform="matrix(0.1099 0 0 0.1099 0.9554 -2.0792)">
</image>
</svg>
