<?xml version="1.0" encoding="utf-8"?>
<!-- Generator: Adobe Illustrator 24.1.2, SVG Export Plug-In . SVG Version: 6.00 Build 0)  -->
<svg version="1.1" id="Layer_1" xmlns="http://www.w3.org/2000/svg" xmlns:xlink="http://www.w3.org/1999/xlink" x="0px" y="0px"
	 viewBox="0 0 140 60" style="enable-background:new 0 0 140 60;" xml:space="preserve">
<style type="text/css">
	.st0{fill:#222222;}
	.st1{fill:#B07908;}
	.st2{font-family:'MyriadPro-Regular';}
	.st3{font-size:27px;}
</style>
<polygon class="st0" points="39.2,36.4 19.9,26.4 19.9,21.6 39.2,31.6 "/>
<polygon class="st0" points="0.6,36.4 19.9,26.4 19.9,21.6 0.6,31.6 "/>
<polygon class="st1" points="39.2,43 19.9,32.9 19.9,28.1 39.2,38.1 "/>
<polygon class="st0" points="39.2,49.5 19.9,39.4 19.9,34.6 39.2,44.7 "/>
<g>
	<polygon class="st1" points="19.9,19.7 19.9,20 24.3,22.2 39.2,14.5 39.2,9.7 	"/>
	<g>
		<polygon class="st1" points="32.2,26.4 36.9,28.8 39.2,27.6 39.2,22.7 		"/>
	</g>
	<g>
		<polygon class="st1" points="26,23.1 30.6,25.5 39.2,21 39.2,16.2 		"/>
	</g>
</g>
<polygon class="st0" points="11.7,22.2 7.4,20 7.4,28.3 11.7,30.5 "/>
<polygon class="st0" points="0.6,38.1 0.6,47.3 5,49.5 5,35.8 "/>
<text transform="matrix(1 0 0 1 54.1 25.4396)" class="st0 st2 st3">Bright</text>
<text transform="matrix(1 0 0 1 54.1 51.8554)" class="st0 st2 st3">House</text>
</svg>
